Coordinates
version=1
nRows=4
nColumns=63
inDegrees=yes

Units are S.I. units (second, meters, Newtons, ...)
If the header above contains a line with 'inDegrees', this indicates whether rotational values are in degrees (yes) or radians (no).

endheader
time	pelvis_tilt	pelvis_list	pelvis_rotation	pelvis_tx	pelvis_ty	pelvis_tz	hip_flexion_r	hip_adduction_r	hip_rotation_r	knee_angle_r	knee_angle_r_beta	ankle_angle_r	subtalar_angle_r	mtp_angle_r	hip_flexion_l	hip_adduction_l	hip_rotation_l	knee_angle_l	knee_angle_l_beta	ankle_angle_l	subtalar_angle_l	mtp_angle_l	L5_S1_Flex_Ext	L5_S1_Lat_Bending	L5_S1_axial_rotation	L4_L5_Flex_Ext	L4_L5_Lat_Bending	L4_L5_axial_rotation	L3_L4_Flex_Ext	L3_L4_Lat_Bending	L3_L4_axial_rotation	L2_L3_Flex_Ext	L2_L3_Lat_Bending	L2_L3_axial_rotation	L1_L2_Flex_Ext	L1_L2_Lat_Bending	L1_L2_axial_rotation	L1_T12_Flex_Ext	L1_T12_Lat_Bending	L1_T12_axial_rotation	Abs_r3	Abs_r2	Abs_r1	Abs_t1	Abs_t2	neck_flexion	neck_bending	neck_rotation	arm_flex_r	arm_add_r	arm_rot_r	elbow_flex_r	pro_sup_r	wrist_flex_r	wrist_dev_r	arm_flex_l	arm_add_l	arm_rot_l	elbow_flex_l	pro_sup_l	wrist_flex_l	wrist_dev_l
      4.43333333	     -2.72914870	     -5.73662736	   -278.74213652	      0.34305492	      0.86101687	      1.89133322	     40.42900089	      0.96647680	    -10.47416992	     46.33545270	      0.80870621	     12.94447564	    -14.91877883	      0.00000000	     51.05144312	     -5.14150348	     -1.46239348	     52.87077086	      0.92276903	      6.90128827	    -17.84729007	      0.00000000	     -0.00730615	      0.04334298	      2.46869914	     -0.01356826	      0.05764616	      2.62299284	     -0.01200328	      0.10538412	      2.62299284	     -0.00835020	      0.10538412	      2.16011175	     -0.00678449	      0.08838501	      2.00581805	     -0.00417474	      0.06713828	      1.85152436	     -0.05218712	      0.49030446	     13.73016402	      0.00000000	      0.00000000	     -0.00000000	      0.00000000	      0.00000000	     -5.22437880	    -27.56573896	     28.34347465	    119.31763220	     63.14276257	      0.00000000	      5.00000014	     -5.97753034	    -28.49125547	     17.38900066	    103.03244798	     57.88249876	      0.00000000	      5.00000014
      4.46666667	      0.40163153	     -6.50645175	   -261.68400570	      0.29519797	      0.85828330	      1.91213316	     41.32471801	     -4.69114849	    -15.19747657	     46.28023128	      0.80774241	     13.75563545	    -10.63658420	      0.00000000	     52.42089078	     -5.53875099	     -1.90015394	     53.67066088	      0.93672974	      5.26671903	    -18.87970174	      0.00000000	     -0.00653168	      0.17299996	      2.10917213	     -0.01212999	      0.23008995	      2.24099539	     -0.01073090	      0.42063211	      2.24099539	     -0.00746506	      0.42063211	      1.84552561	     -0.00606532	      0.35278152	      1.71370236	     -0.00373220	      0.26797694	      1.58187910	     -0.04665517	      1.95701016	     11.73058263	      0.00000000	      0.00000000	     -0.00000000	      0.00000000	      0.00000000	     -9.55695418	    -29.80886180	     23.90160151	    117.19210914	     62.67647064	      0.00000000	      5.00000014	     -7.83008528	    -29.42568589	     19.39604223	    105.70077164	     58.02637115	      0.00000000	      5.00000014
      4.50000000	      3.36295622	     -5.69460657	   -246.41782779	      0.25205417	      0.85743368	      1.93760051	     39.90283062	     -9.18079984	    -17.83209802	     45.44242838	      0.79312000	     16.01503022	     -3.46679310	      0.00000000	     52.94303384	     -7.44659129	     -4.62430406	     54.59461764	      0.95285583	      4.98043796	    -19.24040705	      0.00000000	     -0.00659887	      0.30709016	      1.87699987	     -0.01225475	      0.40842992	      1.99431236	     -0.01084128	      0.74665903	      1.99431236	     -0.00754184	      0.74665903	      1.64237488	     -0.00612771	      0.62621826	      1.52506239	     -0.00377059	      0.47568266	      1.40774990	     -0.04713503	      3.47386536	     10.43931016	      0.00000000	      0.00000000	     -0.00000000	      0.00000000	      0.00000000	    -12.93851713	    -32.39794645	     21.81695855	    116.41543104	     62.18894764	      0.00000000	      5.00000014	    -10.88470522	    -30.61472637	     19.29371682	    108.76562765	     57.89216514	      0.00000000	      5.00000014
      4.53333333	      5.73259594	     -3.66965236	   -233.13028127	      0.21372869	      0.85730069	      1.96558081	     36.85764393	    -11.48353610	    -17.38536802	     43.69546385	      0.76262971	     18.92547325	      3.65032039	      0.00000000	     52.91357628	    -10.78220731	     -7.33748174	     55.80320001	      0.97394957	      6.36906183	    -19.37653548	      0.00000000	     -0.00776774	      0.43245194	      1.81190044	     -0.01442547	      0.57516108	      1.92514422	     -0.01276162	      1.05146364	      1.92514422	     -0.00887775	      1.05146364	      1.58541288	     -0.00721312	      0.88185599	      1.47216911	     -0.00443849	      0.66986805	      1.35892533	     -0.05548419	      4.89198283	     10.07724666	      0.00000000	      0.00000000	     -0.00000000	      0.00000000	      0.00000000	    -15.42719105	    -35.03427902	     21.97249367	    117.28169749	     61.81573471	      0.00000000	      5.00000014	    -14.26674297	    -32.34132322	     18.46273509	    112.06904127	     57.74843354	      0.00000000	      5.00000014
